<svg id="Capa_1" enable-background="new 0 0 511.528 511.528" height="512" viewBox="0 0 511.528 511.528" width="512" xmlns="http://www.w3.org/2000/svg"><g><path d="m492.268 94.344h-473.008c-10.62 0-19.26 8.64-19.26 19.261v284.318c0 10.621 8.64 19.261 19.26 19.261h473.008c10.62 0 19.26-8.64 19.26-19.261v-284.318c0-10.621-8.64-19.261-19.26-19.261zm-473.008 15h473.008c2.349 0 4.26 1.911 4.26 4.261v121.486c-3.18-1.434-6.701-2.239-10.41-2.239h-19.018c-11.401 0-21.072 7.548-24.279 17.91h-19.19c-3.207-10.361-12.878-17.91-24.279-17.91h-19.019c-11.401 0-21.072 7.548-24.279 17.91h-20.748c-2.652-6.801-8.197-12.162-15.118-14.564v-47.429c0-19.834-9.015-37.597-23.156-49.424h122.726c3.331 24.218 22.552 43.439 46.77 46.77v24.238c0 4.142 3.358 7.5 7.5 7.5s7.5-3.358 7.5-7.5v-31.226c0-4.142-3.358-7.5-7.5-7.5-21.936 0-39.782-17.846-39.782-39.782 0-4.142-3.358-7.5-7.5-7.5h-273.011c-4.142 0-7.5 3.358-7.5 7.5s3.358 7.5 7.5 7.5h60.761c-14.141 11.827-23.156 29.59-23.156 49.424v47.429c-6.921 2.402-12.466 7.763-15.118 14.564h-20.661c-3.207-10.362-12.878-17.91-24.279-17.91h-19.019c-11.401 0-21.072 7.549-24.279 17.91h-19.189c-3.207-10.361-12.878-17.91-24.279-17.91h-19.019c-3.742 0-7.295.82-10.497 2.279v-121.526c0-2.35 1.911-4.261 4.26-4.261zm477.268 148.918c0 5.74-4.67 10.41-10.41 10.41h-19.018c-5.74 0-10.41-4.67-10.41-10.41s4.67-10.41 10.41-10.41h19.019c5.739 0 10.409 4.67 10.409 10.41zm-86.766 0c0 5.74-4.67 10.41-10.41 10.41h-19.019c-5.74 0-10.41-4.67-10.41-10.41s4.67-10.41 10.41-10.41h19.019c5.74 0 10.41 4.67 10.41 10.41zm-127.074-39.429c-4.142 0-7.5 3.358-7.5 7.5v8.484h-38.848v-46.05c0-10.71 8.713-19.423 19.424-19.423s19.424 8.713 19.424 19.423v5.603c0 4.142 3.358 7.5 7.5 7.5s7.5-3.358 7.5-7.5v-5.603c0-18.981-15.442-34.423-34.424-34.423s-34.424 15.442-34.424 34.423v46.05h-15v-46.05c0-27.252 22.171-49.424 49.424-49.424s49.424 22.171 49.424 49.424v46.05h-15v-8.484c0-4.142-3.358-7.5-7.5-7.5zm-140.996 39.429c0 5.74-4.67 10.41-10.41 10.41h-19.019c-5.74 0-10.41-4.67-10.41-10.41s4.67-10.41 10.41-10.41h19.019c5.74 0 10.41 4.669 10.41 10.41zm-86.766 0c0 5.74-4.67 10.41-10.41 10.41h-19.019c-5.74 0-10.41-4.67-10.41-10.41s4.67-10.41 10.41-10.41h19.019c5.74 0 10.41 4.67 10.41 10.41zm437.342 143.922h-473.008c-2.349 0-4.26-1.911-4.26-4.261v-116.53c3.202 1.459 6.755 2.279 10.497 2.279h19.019c11.401 0 21.072-7.549 24.279-17.91h19.189c3.207 10.362 12.878 17.91 24.279 17.91h19.019c11.401 0 21.072-7.549 24.279-17.91h18.958v52.25c0 4.142 3.358 7.5 7.5 7.5s7.5-3.358 7.5-7.5v-58.199c0-.235.019-.465.035-.696.015-.136.022-.274.03-.412.553-4.991 4.793-8.887 9.93-8.887h112.5c5.511 0 9.995 4.483 9.995 9.995v102.376c0 5.511-4.483 9.995-9.995 9.995h-112.5c-5.511 0-9.995-4.484-9.995-9.995v-12.215c0-4.142-3.358-7.5-7.5-7.5s-7.5 3.358-7.5 7.5v12.215c0 3.553.75 6.932 2.092 9.995h-84.841c-3.331-24.218-22.552-43.439-46.77-46.77v-19.242c0-4.142-3.358-7.5-7.5-7.5s-7.5 3.358-7.5 7.5v26.23c0 4.142 3.358 7.5 7.5 7.5 21.936 0 39.782 17.846 39.782 39.782 0 4.142 3.358 7.5 7.5 7.5h341.965c4.142 0 7.5-3.358 7.5-7.5 0-21.936 17.846-39.782 39.782-39.782 4.142 0 7.5-3.358 7.5-7.5v-26.23c0-4.142-3.358-7.5-7.5-7.5s-7.5 3.358-7.5 7.5v19.242c-24.218 3.331-43.439 22.552-46.77 46.77h-84.841c1.342-3.063 2.092-6.442 2.092-9.995v-96.427h19.045c3.207 10.362 12.878 17.91 24.279 17.91h19.019c11.401 0 21.072-7.549 24.279-17.91h19.19c3.207 10.362 12.878 17.91 24.279 17.91h19.019c3.708 0 7.23-.805 10.41-2.239v116.491c-.002 2.349-1.913 4.26-4.262 4.26z"/><path d="m37.5 217.852c4.142 0 7.5-3.358 7.5-7.5v-24.28c24.194-3.33 43.397-22.533 46.728-46.728h30.045c4.142 0 7.5-3.358 7.5-7.5s-3.358-7.5-7.5-7.5h-37.034c-4.142 0-7.5 3.358-7.5 7.5 0 21.912-17.827 39.739-39.739 39.739-4.142 0-7.5 3.358-7.5 7.5v31.269c0 4.142 3.358 7.5 7.5 7.5z"/><path d="m228.221 333.509c-2.181 5.075-1.67 10.859 1.369 15.473 3.039 4.613 8.15 7.367 13.674 7.367h25.089c5.524 0 10.636-2.754 13.674-7.367 3.039-4.613 3.55-10.397 1.369-15.473l-5.078-11.813c6.668-6.457 10.143-15.396 9.567-24.732-.98-15.903-13.711-28.641-29.613-29.628-8.847-.553-17.265 2.479-23.703 8.53-6.348 5.966-9.989 14.382-9.989 23.09 0 8.233 3.262 16.22 8.99 22.105zm16.621-46.713c3.126-2.938 7.147-4.522 11.419-4.522.358 0 .719.011 1.081.033 8.225.511 15.064 7.354 15.571 15.58.318 5.16-1.705 10.086-5.55 13.516-4.235 3.778-5.563 9.848-3.304 15.104l5.556 12.925c.194.451.155.888-.115 1.298s-.656.618-1.147.618h-25.089c-.491 0-.877-.208-1.147-.618s-.309-.847-.114-1.298l5.813-13.525c2.185-5.083.964-11.053-3.038-14.855-3.351-3.183-5.197-7.479-5.197-12.096 0-4.653 1.869-8.972 5.261-12.16z"/></g></svg>