<svg id="Layer_1" enable-background="new 0 0 480 480" height="512" viewBox="0 0 480 480" width="512" xmlns="http://www.w3.org/2000/svg"><path d="m472 210.5h-26.298c-3.647-10.649-8.48-20.845-14.399-30.453 5.7-6.744 9.402-14.596 9.074-23.127-.862-22.379-30.053-44.563-54.074-39.131-33.662 7.611-43.834 66.802-24.506 82.601 13.599 11.116 41.057 2.19 57.405-9.413 5.51 9.393 9.883 19.381 13.001 29.813 1.013 3.388 4.129 5.709 7.665 5.709h24.132v67h-24.133c-3.537 0-6.653 2.322-7.666 5.71-8.717 29.186-27.425 55.49-53.656 73.508-2.329 1.6-3.546 4.267-3.546 6.781v35c0 8.823-7.178 16-16 16h-35c-8.822 0-16-7.177-16-16v-10c0-4.418-3.582-8-8-8h-60c-4.418 0-8 3.582-8 8s3.582 8 8 8h52v2c0 17.645 14.355 32 32 32h35c17.645 0 32-14.355 32-32v-31.002c26.14-19.027 44.844-45.25 54.702-73.998h26.299c4.418 0 8-3.582 8-8v-83c0-4.416-3.582-7.998-8-7.998zm-70.923-27.268c-14.188 7.065-26.048 7.31-29.155 4.77-3.089-2.525-5.583-13.6-2.229-27.827 2.675-11.35 9.37-24.345 20.138-26.78 1 0 10.706-2.811 23.379 6.923 6.684 5.134 10.967 11.731 11.178 17.218.319 8.268-9.05 18.595-23.311 25.696zm-192.077 221.268v10c0 17.645-14.355 32-32 32h-35c-17.645 0-32-14.355-32-32v-30.907c-35.028-25.992-59.492-67.209-61.902-115.093h-5.815c-13.863 0-25.141-11.278-25.141-25.141 0-5.041-4.101-9.141-9.142-9.141-4.418 0-8-3.582-8-8s3.582-8 8-8c13.863 0 25.142 11.278 25.142 25.141 0 5.041 4.101 9.141 9.141 9.141h5.84c2.492-46.732 26.459-89.102 63.237-115.472 3.59-2.574 8.589-1.751 11.163 1.84 2.575 3.591 1.75 8.589-1.84 11.163-75.828 54.366-76.145 168.215 1.908 222.917 2.137 1.497 3.409 3.942 3.409 6.551v35c0 8.823 7.178 16 16 16h35c8.822 0 16-7.177 16-16v-10c0-4.418 3.582-8 8-8s8 3.583 8 8.001zm-61-219h12.025c-12.88-16.403-20.025-36.728-20.025-58 0-51.832 42.168-94 94-94 60.04 0 105.109 55.931 91.65 114.97-.982 4.308-5.271 7.003-9.578 6.022-4.308-.982-7.004-5.27-6.022-9.578 11.177-49.029-26.266-95.414-76.05-95.414-43.009 0-78 34.991-78 78 0 22.219 9.39 43.194 25.854 58h138.146c4.418 0 8 3.582 8 8s-3.582 8-8 8c-5.257 0-170.881 0-172 0-4.418 0-8-3.582-8-8s3.582-8 8-8z"/></svg>